<svg width="65" height="65" viewBox="0 0 65 65" fill="none" xmlns="http://www.w3.org/2000/svg">
<path fill-rule="evenodd" clip-rule="evenodd" d="M32.5 9.00986C33.4434 9.00985 34.3775 9.19565 35.2491 9.55666C36.1207 9.91767 36.9127 10.4468 37.5797 11.1139C38.2468 11.781 38.776 12.5729 39.137 13.4445C39.498 14.3161 39.6838 15.2502 39.6838 16.1936C39.6838 20.0088 37.4423 19.9794 36.6209 24.4573C36.5708 24.4547 36.5203 24.4535 36.4694 24.4535H33.3887V18.0392L36.0214 16.5191C36.2224 16.401 36.3686 16.2082 36.4283 15.9829C36.488 15.7575 36.4563 15.5176 36.3402 15.3155C36.224 15.1133 36.0327 14.9652 35.808 14.9033C35.5832 14.8413 35.343 14.8706 35.1397 14.9848L32.5 16.5082L29.8603 14.9848C29.657 14.8706 29.4168 14.8413 29.192 14.9033C28.9673 14.9652 28.776 15.1133 28.6598 15.3155C28.5437 15.5176 28.512 15.7575 28.5717 15.9829C28.6313 16.2082 28.7776 16.401 28.9786 16.5191L31.6113 18.0392V24.4535H28.5306C28.4798 24.4535 28.4293 24.4547 28.3791 24.4573C27.5577 19.9794 25.3162 20.0088 25.3162 16.1936C25.3162 14.2884 26.0731 12.4612 27.4203 11.1139C28.7675 9.76672 30.5947 9.00986 32.5 9.00986ZM62.9688 60.7128C61.7343 60.7221 60.5177 60.4173 59.4335 59.8269C57.9445 59.0516 56.812 58.0381 54.9287 57.9709C53.3221 57.9136 51.9278 58.6091 50.5769 59.334C49.2107 60.0669 47.8887 60.8297 46.4363 60.8742C45.0144 60.9177 44.3371 60.0911 44.2614 59.1551C44.1865 58.2274 44.7025 57.1919 45.6697 56.7893C46.2431 56.5508 46.9752 56.5345 47.8367 56.8949C48.309 56.569 48.5476 55.6847 48.3978 54.8272C48.2404 53.9252 47.6535 53.0528 46.4577 52.8907C45.1218 52.7094 43.0259 53.4146 39.9196 55.9554C37.2827 58.1123 34.2865 60.603 30.7141 60.8758C26.9976 61.1598 24.6958 59.15 23.5843 57.128C22.548 55.243 22.5462 52.8677 23.397 50.9567C24.2931 48.9436 26.1352 47.4456 28.7106 47.5781C30.4389 47.667 31.7238 48.9619 32.1657 50.5258C32.3418 51.1196 32.3825 51.7452 32.285 52.3568C32.1875 52.9684 31.9542 53.5504 31.6022 54.0599C36.7412 52.6737 38.8828 48.4883 38.2026 44.5765C37.3103 39.4461 32.5999 36.9534 27.7603 36.7454C22.0907 36.5018 18.5989 38.6816 15.9569 41.8906C12.8908 45.6151 10.9695 50.7254 8.11726 55.0424C6.2758 57.8296 4.18768 60.2126 2.03125 60.8758V63.4131H62.9688V60.7128ZM28.5306 26.2308H36.4694C36.7841 26.2317 37.0857 26.3571 37.3082 26.5796C37.5307 26.8021 37.6562 27.1036 37.6571 27.4183V29.9815C37.6562 30.2962 37.5307 30.5977 37.3082 30.8202C37.0857 31.0427 36.7841 31.1681 36.4694 31.169H35.2487V32.3598C35.2478 32.6567 35.1295 32.9412 34.9195 33.1511C34.7096 33.361 34.4252 33.4792 34.1283 33.4801H30.8717C30.5748 33.4792 30.2904 33.361 30.0805 33.1511C29.8705 32.9412 29.7522 32.6567 29.7513 32.3598V31.169H28.5306C28.2159 31.1681 27.9144 31.0427 27.6919 30.8202C27.4693 30.5977 27.3439 30.2962 27.343 29.9815V27.4183C27.3439 27.1036 27.4693 26.8021 27.6919 26.5796C27.9144 26.3571 28.2159 26.2317 28.5306 26.2308ZM44.0995 11.9928C43.9987 12.0511 43.8875 12.089 43.772 12.1044C43.6566 12.1198 43.5393 12.1122 43.4268 12.0822C43.3143 12.0523 43.2088 12.0004 43.1164 11.9297C43.0239 11.8589 42.9463 11.7707 42.8879 11.6699C42.8296 11.5692 42.7917 11.4579 42.7763 11.3425C42.7609 11.2271 42.7685 11.1098 42.7984 10.9973C42.8284 10.8848 42.8803 10.7793 42.951 10.6868C43.0218 10.5944 43.11 10.5167 43.2108 10.4584L45.2109 9.30312C45.4144 9.18528 45.6563 9.15309 45.8835 9.21363C46.1108 9.27418 46.3046 9.4225 46.4224 9.62597C46.5403 9.82943 46.5725 10.0714 46.5119 10.2986C46.4514 10.5258 46.3031 10.7196 46.0996 10.8375L44.0995 11.9928ZM39.7076 6.95183C39.6501 7.05321 39.573 7.14222 39.481 7.21374C39.3889 7.28526 39.2836 7.33788 39.1711 7.36857C39.0586 7.39926 38.9412 7.40743 38.8255 7.39259C38.7099 7.37775 38.5983 7.3402 38.4972 7.28211C38.3962 7.22401 38.3075 7.14651 38.2365 7.05406C38.1655 6.96162 38.1134 6.85604 38.0833 6.7434C38.0532 6.63076 38.0457 6.51329 38.0611 6.39773C38.0765 6.28216 38.1147 6.17079 38.1733 6.07001L39.3286 4.06986C39.4489 3.87351 39.6411 3.73183 39.8643 3.67493C40.0875 3.61803 40.3241 3.65038 40.5238 3.76513C40.7235 3.87987 40.8706 4.06795 40.9338 4.28942C40.997 4.51089 40.9714 4.74829 40.8624 4.95117L39.7071 6.95145L39.7076 6.95183ZM21.7891 10.4584C21.8898 10.5167 21.9781 10.5944 22.0489 10.6868C22.1196 10.7793 22.1714 10.8848 22.2014 10.9973C22.2314 11.1098 22.2389 11.2271 22.2236 11.3425C22.2082 11.4579 22.1703 11.5692 22.1119 11.6699C22.0536 11.7707 21.976 11.8589 21.8835 11.9297C21.791 12.0004 21.6855 12.0523 21.573 12.0822C21.4605 12.1122 21.3432 12.1198 21.2278 12.1044C21.1124 12.089 21.0012 12.0511 20.9004 11.9928L18.9003 10.8375C18.7995 10.7791 18.7113 10.7015 18.6405 10.609C18.5698 10.5166 18.5179 10.4111 18.4879 10.2986C18.458 10.1861 18.4504 10.0688 18.4658 9.95338C18.4811 9.83797 18.5191 9.72671 18.5774 9.62597C18.6358 9.52522 18.7134 9.43695 18.8059 9.3662C18.8983 9.29545 19.0038 9.24361 19.1163 9.21363C19.2288 9.18365 19.3461 9.17613 19.4615 9.19148C19.5769 9.20684 19.6882 9.24477 19.7889 9.30312L21.7891 10.4584ZM26.8267 6.07001C26.8853 6.17079 26.9235 6.28216 26.9389 6.39773C26.9543 6.51329 26.9468 6.63076 26.9167 6.7434C26.8866 6.85604 26.8345 6.96162 26.7635 7.05406C26.6924 7.14651 26.6038 7.22401 26.5028 7.28211C26.4017 7.3402 26.2901 7.37775 26.1745 7.39259C26.0588 7.40743 25.9414 7.39926 25.8289 7.36857C25.7164 7.33788 25.6111 7.28526 25.519 7.21374C25.427 7.14222 25.3499 7.05321 25.2924 6.95183L24.1376 4.95117C24.0234 4.74787 23.9941 4.50773 24.0561 4.28294C24.118 4.05816 24.2661 3.8669 24.4683 3.75073C24.6704 3.63457 24.9103 3.60288 25.1357 3.66257C25.3611 3.72226 25.5538 3.86849 25.672 4.06948L26.8272 6.06963L26.8267 6.07001ZM33.3887 4.78524C33.3887 5.02093 33.295 5.24697 33.1284 5.41363C32.9617 5.58029 32.7357 5.67392 32.5 5.67392C32.2643 5.67392 32.0383 5.58029 31.8716 5.41363C31.705 5.24697 31.6113 5.02093 31.6113 4.78524V2.47559C31.6113 2.2399 31.705 2.01386 31.8716 1.8472C32.0383 1.68054 32.2643 1.58691 32.5 1.58691C32.7357 1.58691 32.9617 1.68054 33.1284 1.8472C33.295 2.01386 33.3887 2.2399 33.3887 2.47559V4.78524Z" fill="white"/>
</svg>
