<svg width="104" height="104" viewBox="0 0 104 104" fill="none" xmlns="http://www.w3.org/2000/svg">
<g clip-path="url(#clip0_54_16206)">
<path d="M95.3333 43.3333H91C89.804 43.3333 88.8333 44.304 88.8333 45.5C88.8333 46.696 89.804 47.6667 91 47.6667H95.3333C96.5293 47.6667 97.5 46.696 97.5 45.5C97.5 44.304 96.5293 43.3333 95.3333 43.3333Z" fill="#7E68FF"/>
<path d="M13 43.3333H8.66673C7.47073 43.3333 6.5 44.304 6.5 45.5C6.5 46.696 7.47073 47.6667 8.66673 47.6667H13C14.196 47.6667 15.1667 46.696 15.1667 45.5C15.1667 44.304 14.196 43.3333 13 43.3333Z" fill="#7E68FF"/>
<path d="M52 8.66673C53.196 8.66673 54.1667 7.696 54.1667 6.5V2.16673C54.1667 0.970734 53.196 0 52 0C50.804 0 49.8333 0.970734 49.8333 2.16673V6.5C49.8333 7.696 50.804 8.66673 52 8.66673Z" fill="#7E68FF"/>
<path d="M81.107 71.5432C80.262 70.6982 78.8883 70.6982 78.0433 71.5432C77.1983 72.3882 77.1983 73.7619 78.0433 74.6069L81.1113 77.6749C81.536 78.0996 82.0906 78.3076 82.6453 78.3076C83.2 78.3076 83.7546 78.0954 84.1793 77.6749C85.0243 76.8299 85.0243 75.4562 84.1793 74.6112L81.107 71.5432Z" fill="#7E68FF"/>
<path d="M22.893 19.4568C23.3133 19.877 23.868 20.0895 24.4228 20.0895C24.9775 20.0895 25.532 19.8772 25.9568 19.4568C26.8018 18.6118 26.8018 17.238 25.9568 16.393L22.8888 13.325C22.0438 12.48 20.67 12.48 19.825 13.325C18.98 14.17 18.98 15.5438 19.825 16.3888L22.893 19.4568Z" fill="#7E68FF"/>
<path d="M22.8973 71.5432L19.8293 74.6112C18.9843 75.4562 18.9843 76.8299 19.8293 77.6749C20.2496 78.0952 20.8043 78.3076 21.359 78.3076C21.9138 78.3076 22.4683 78.0954 22.893 77.6749L25.961 74.6069C26.806 73.7619 26.806 72.3882 25.961 71.5432C25.116 70.6982 23.7423 70.6982 22.8973 71.5432Z" fill="#7E68FF"/>
<path d="M81.1157 13.325L78.0434 16.393C77.1984 17.238 77.1984 18.6118 78.0434 19.4568C78.4682 19.877 79.0227 20.0895 79.5774 20.0895C80.1322 20.0895 80.6867 19.8772 81.1114 19.4568L84.1794 16.3888C85.0244 15.5438 85.0244 14.17 84.1794 13.325C83.3342 12.48 81.9607 12.48 81.1157 13.325Z" fill="#7E68FF"/>
<path d="M48.6028 13.1993C36.3438 14.638 26.0738 24.5093 24.1845 36.6685C23.0925 43.6798 24.6048 50.7563 28.4443 56.5933C34.0125 65.052 36.8335 73.7055 36.8335 82.3073V84.5C36.8335 85.696 37.8043 86.6667 39.0003 86.6667H65.0003C66.1963 86.6667 67.167 85.696 67.167 84.5C67.167 74.711 70.105 65.0043 75.6602 56.4287C78.6112 51.8787 80.167 46.6007 80.167 41.1667C80.1668 24.518 65.6543 11.18 48.6028 13.1993ZM72.0288 54.0713C66.4258 62.7205 63.2798 72.449 62.881 82.3333H41.1668V82.3073C41.1668 72.8433 38.103 63.388 32.0625 54.21C28.8168 49.2743 27.5385 43.2813 28.4658 37.3317C30.0648 27.0575 38.7445 18.72 49.1055 17.5025C63.5398 15.8082 75.8335 27.0705 75.8335 41.1667C75.8333 45.7643 74.516 50.2277 72.0288 54.0713Z" fill="#7E68FF"/>
<path d="M43.576 23.582C42.3628 24.167 41.1928 24.895 40.1008 25.74C39.1518 26.468 38.9785 27.8287 39.7108 28.7732C40.1355 29.328 40.7768 29.614 41.4268 29.614C41.886 29.614 42.354 29.4667 42.7485 29.1632C43.6022 28.5045 44.5123 27.937 45.4568 27.482C46.5358 26.962 46.9865 25.6662 46.4665 24.5917C45.9508 23.517 44.6508 23.0662 43.576 23.582Z" fill="#7E68FF"/>
<path d="M38.2243 47.5107C37.882 46.7827 37.5743 45.968 37.3315 45.0667C37.0758 44.109 36.9198 43.1167 36.8593 42.12C36.79 40.9933 36.8463 39.832 37.0283 38.6707C37.2753 37.0805 37.7953 35.542 38.5665 34.0947C39.1298 33.0375 38.7355 31.7245 37.6783 31.161C36.6253 30.5977 35.3165 30.9963 34.749 32.0493C33.7437 33.9255 33.072 35.9275 32.747 38.0033C32.5173 39.468 32.448 40.9455 32.5347 42.38C32.6127 43.6627 32.8165 44.9453 33.1457 46.1847C33.4317 47.2637 33.8217 48.3255 34.2985 49.3395C34.7405 50.2842 35.2172 51.1162 35.6852 51.8267C36.1012 52.4595 36.7902 52.8017 37.4965 52.8017C37.9037 52.8017 38.3197 52.6847 38.6837 52.442C39.6847 51.7833 39.9577 50.44 39.3035 49.4433C38.9393 48.8887 38.5667 48.2473 38.2243 47.5107Z" fill="#7E68FF"/>
<path d="M65 91H39C37.804 91 36.8333 91.9707 36.8333 93.1667C36.8333 94.3627 37.804 95.3335 39 95.3335H65C66.196 95.3335 67.1667 94.3627 67.1667 93.1667C67.1667 91.9707 66.196 91 65 91Z" fill="#7E68FF"/>
<path d="M60.6667 99.6667H43.3335C42.1375 99.6667 41.1667 100.637 41.1667 101.833C41.1667 103.029 42.1375 104 43.3335 104H60.6667C61.8627 104 62.8335 103.029 62.8335 101.833C62.8333 100.637 61.8627 99.6667 60.6667 99.6667Z" fill="#7E68FF"/>
</g>
<defs>
<clipPath id="clip0_54_16206">
<rect width="104" height="104" fill="white"/>
</clipPath>
</defs>
</svg>
