<svg width="22" height="22" viewBox="0 0 22 22" fill="none" xmlns="http://www.w3.org/2000/svg">
<g clip-path="url(#clip0_54_16032)">
<path d="M16.3127 0H5.43798C2.44769 0 0.000610352 2.44708 0.000610352 5.43737V16.3126C0.000610352 19.3021 2.44769 21.75 5.43798 21.75H16.3127C19.303 21.75 21.7501 19.3021 21.7501 16.3126V5.43737C21.7501 2.44708 19.303 0 16.3127 0ZM19.9375 16.3126C19.9375 18.3109 18.3121 19.9375 16.3127 19.9375H5.43798C3.43948 19.9375 1.81315 18.3109 1.81315 16.3126V5.43737C1.81315 3.4386 3.43948 1.81254 5.43798 1.81254H16.3127C18.3121 1.81254 19.9375 3.4386 19.9375 5.43737V16.3126Z" fill="#7E68FF"/>
<path d="M16.7664 6.3435C17.5171 6.3435 18.1257 5.7349 18.1257 4.98416C18.1257 4.23341 17.5171 3.62482 16.7664 3.62482C16.0156 3.62482 15.407 4.23341 15.407 4.98416C15.407 5.7349 16.0156 6.3435 16.7664 6.3435Z" fill="#7E68FF"/>
<path d="M10.875 5.43738C7.87137 5.43738 5.43762 7.8714 5.43762 10.8747C5.43762 13.877 7.87137 16.3126 10.875 16.3126C13.8778 16.3126 16.3124 13.877 16.3124 10.8747C16.3124 7.8714 13.8778 5.43738 10.875 5.43738ZM10.875 14.5001C8.8732 14.5001 7.25017 12.8771 7.25017 10.8747C7.25017 8.87242 8.8732 7.24992 10.875 7.24992C12.8768 7.24992 14.4998 8.87242 14.4998 10.8747C14.4998 12.8771 12.8768 14.5001 10.875 14.5001Z" fill="#7E68FF"/>
</g>
<defs>
<clipPath id="clip0_54_16032">
<rect width="21.75" height="21.75" fill="white"/>
</clipPath>
</defs>
</svg>
