<svg width="22" height="22" viewBox="0 0 22 22" fill="none" xmlns="http://www.w3.org/2000/svg">
<g clip-path="url(#clip0_54_16227)">
<path d="M16.3127 0H5.43798C2.44769 0 0.000610352 2.44708 0.000610352 5.43737V16.3126C0.000610352 19.3021 2.44769 21.75 5.43798 21.75H16.3127C19.303 21.75 21.7501 19.3021 21.7501 16.3126V5.43737C21.7501 2.44708 19.303 0 16.3127 0ZM19.9375 16.3126C19.9375 18.3109 18.3121 19.9375 16.3127 19.9375H5.43798C3.43948 19.9375 1.81315 18.3109 1.81315 16.3126V5.43737C1.81315 3.4386 3.43948 1.81254 5.43798 1.81254H16.3127C18.3121 1.81254 19.9375 3.4386 19.9375 5.43737V16.3126Z" fill="white"/>
<path d="M16.7664 6.34344C17.5171 6.34344 18.1257 5.73484 18.1257 4.9841C18.1257 4.23335 17.5171 3.62476 16.7664 3.62476C16.0156 3.62476 15.407 4.23335 15.407 4.9841C15.407 5.73484 16.0156 6.34344 16.7664 6.34344Z" fill="white"/>
<path d="M10.875 5.43726C7.87137 5.43726 5.43762 7.87127 5.43762 10.8746C5.43762 13.8769 7.87137 16.3125 10.875 16.3125C13.8778 16.3125 16.3124 13.8769 16.3124 10.8746C16.3124 7.87127 13.8778 5.43726 10.875 5.43726ZM10.875 14.5C8.8732 14.5 7.25017 12.8769 7.25017 10.8746C7.25017 8.8723 8.8732 7.2498 10.875 7.2498C12.8768 7.2498 14.4998 8.8723 14.4998 10.8746C14.4998 12.8769 12.8768 14.5 10.875 14.5Z" fill="white"/>
</g>
<defs>
<clipPath id="clip0_54_16227">
<rect width="21.75" height="21.75" fill="white"/>
</clipPath>
</defs>
</svg>
