<svg width="75" height="75" viewBox="0 0 75 75" fill="none" xmlns="http://www.w3.org/2000/svg">
<path d="M71.3603 47.5368H67.1691V53.4927C67.1691 57.7941 63.75 61.2132 59.4485 61.2132H57.5735V71.9118C57.5735 72.4632 57.022 73.0147 56.4706 73.0147H25.3676C24.8162 73.0147 24.2647 72.4632 24.2647 71.9118C24.2647 66.8382 23.6029 61.7647 22.3897 57.0221C19.3015 45.5515 14.7794 42.5735 13.2353 34.8529C17.3162 33.4191 20.2941 29.5588 20.2941 25.0368V24.9265H33.75V30.2206C33.75 32.0956 35.1838 33.5294 37.0588 33.5294H41.3603C42.1323 33.5294 42.9044 33.3088 43.4559 32.7574C44.0073 33.1985 44.7794 33.5294 45.5515 33.5294H49.6323C51.397 33.5294 52.9412 32.0956 52.9412 30.2206V24.7059C55.3676 24.1544 57.2426 21.9485 57.2426 19.3015V19.0809C57.2426 15.9926 54.7059 13.4559 51.6176 13.4559H20.1838V13.3456C20.1838 12.3529 20.0735 11.3603 19.7426 10.4779C24.7059 4.85294 31.6544 1.76471 39.375 1.76471C52.9412 1.76471 67.0588 11.9118 67.0588 29.0074C67.0588 31.3235 67.7206 33.5294 68.9338 35.5147L73.4559 43.6765C74.5588 45.5515 73.2353 47.5368 71.3603 47.5368Z" fill="#7E68FF"/>
<path d="M71.3603 47.5368H67.1691V53.4927C67.1691 57.7941 63.75 61.2132 59.4485 61.2132H57.5735V71.9118C57.5735 72.4632 57.022 73.0147 56.4706 73.0147H25.3676C24.8162 73.0147 24.2647 72.4632 24.2647 71.9118C24.2647 66.8382 23.6029 61.7647 22.3897 57.0221C19.3015 45.5515 14.7794 42.5735 13.2353 34.8529C17.3162 33.4191 20.2941 29.5588 20.2941 25.0368V24.9265H33.75V30.2206C33.75 32.0956 35.1838 33.5294 37.0588 33.5294H41.3603C42.1323 33.5294 42.9044 33.3088 43.4559 32.7574C44.0073 33.1985 44.7794 33.5294 45.5515 33.5294H49.6323C51.397 33.5294 52.9412 32.0956 52.9412 30.2206V24.7059C55.3676 24.1544 57.2426 21.9485 57.2426 19.3015V19.0809C57.2426 15.9926 54.7059 13.4559 51.6176 13.4559H20.1838V13.3456C20.1838 12.3529 20.0735 11.3603 19.7426 10.4779C24.7059 4.85294 31.6544 1.76471 39.375 1.76471C52.9412 1.76471 67.0588 11.9118 67.0588 29.0074C67.0588 31.3235 67.7206 33.5294 68.9338 35.5147L73.4559 43.6765C74.5588 45.5515 73.2353 47.5368 71.3603 47.5368Z" fill="url(#paint0_linear_54_16274)"/>
<path d="M51.6177 15.7721H17.978V13.4559C17.978 8.93383 14.3383 5.29413 9.8162 5.29413H9.26473C4.74267 5.40442 1.10297 9.04413 1.10297 13.5662V25.1471C1.10297 29.6691 4.74267 33.3088 9.26473 33.3088H9.8162C14.3383 33.3088 17.978 29.6691 17.978 25.1471V22.8309H35.8456V30.3309C35.8456 30.8824 36.3971 31.4338 36.9486 31.4338H41.25C41.9118 31.4338 42.353 30.8824 42.353 30.3309V26.5809H44.228V30.3309C44.228 30.8824 44.7794 31.4338 45.3309 31.4338H49.6324C50.2941 31.4338 50.7353 30.8824 50.7353 30.3309V22.8309H51.6177C53.4927 22.8309 55.0368 21.2868 55.0368 19.4118V19.1912C55.0368 17.3162 53.4927 15.7721 51.6177 15.7721ZM13.4559 24.8162C13.4559 26.9118 11.6912 28.6765 9.59561 28.6765C7.50002 28.6765 5.73532 26.9118 5.73532 24.8162V13.7868C5.73532 11.6912 7.38973 9.92648 9.59561 9.92648C11.8015 9.92648 13.4559 11.6912 13.4559 13.7868V24.8162Z" fill="#7E68FF"/>
<path d="M51.6177 15.7721H17.978V13.4559C17.978 8.93383 14.3383 5.29413 9.8162 5.29413H9.26473C4.74267 5.40442 1.10297 9.04413 1.10297 13.5662V25.1471C1.10297 29.6691 4.74267 33.3088 9.26473 33.3088H9.8162C14.3383 33.3088 17.978 29.6691 17.978 25.1471V22.8309H35.8456V30.3309C35.8456 30.8824 36.3971 31.4338 36.9486 31.4338H41.25C41.9118 31.4338 42.353 30.8824 42.353 30.3309V26.5809H44.228V30.3309C44.228 30.8824 44.7794 31.4338 45.3309 31.4338H49.6324C50.2941 31.4338 50.7353 30.8824 50.7353 30.3309V22.8309H51.6177C53.4927 22.8309 55.0368 21.2868 55.0368 19.4118V19.1912C55.0368 17.3162 53.4927 15.7721 51.6177 15.7721ZM13.4559 24.8162C13.4559 26.9118 11.6912 28.6765 9.59561 28.6765C7.50002 28.6765 5.73532 26.9118 5.73532 24.8162V13.7868C5.73532 11.6912 7.38973 9.92648 9.59561 9.92648C11.8015 9.92648 13.4559 11.6912 13.4559 13.7868V24.8162Z" fill="url(#paint1_linear_54_16274)"/>
<defs>
<linearGradient id="paint0_linear_54_16274" x1="20.0481" y1="1.76473" x2="77.5879" y2="3.14939" gradientUnits="userSpaceOnUse">
<stop stop-color="#7E68FF"/>
<stop offset="0.68191" stop-color="#A168FF"/>
</linearGradient>
<linearGradient id="paint1_linear_54_16274" x1="7.1641" y1="5.29414" x2="58.234" y2="8.07492" gradientUnits="userSpaceOnUse">
<stop stop-color="#7E68FF"/>
<stop offset="0.68191" stop-color="#A168FF"/>
</linearGradient>
</defs>
</svg>
