<svg width="76" height="76" viewBox="0 0 76 76" fill="none" xmlns="http://www.w3.org/2000/svg">
<path d="M72.5287 48.9458H68.2082V55.2152C68.2082 59.743 64.6836 63.3421 60.2493 63.3421H58.3165V74.6037C58.3165 75.1842 57.748 75.7647 57.1795 75.7647H25.1166C24.5481 75.7647 23.9796 75.1842 23.9796 74.6037C23.9796 69.2632 23.2974 63.9226 22.0467 58.9303C18.8631 46.856 14.2015 43.7214 12.6097 35.5944C16.8166 34.0851 19.8864 30.0217 19.8864 25.2616V25.1455H33.7576V30.7183C33.7576 32.692 35.2357 34.2012 37.1686 34.2012H41.6028C42.3987 34.2012 43.1946 33.969 43.7631 33.3885C44.3316 33.8529 45.1275 34.2012 45.9233 34.2012H50.1302C51.9494 34.2012 53.5411 32.692 53.5411 30.7183V24.9133C56.0425 24.3328 57.9754 22.0108 57.9754 19.2245V18.9923C57.9754 15.7415 55.3603 13.0712 52.1767 13.0712H19.7727V12.9551C19.7727 11.9102 19.659 10.8653 19.3179 9.93654C24.4344 4.01548 31.5974 0.764709 39.5562 0.764709C53.5411 0.764709 68.0945 11.4458 68.0945 29.4412C68.0945 31.8793 68.7767 34.2012 70.0274 36.291L74.689 44.8824C75.826 46.856 74.4616 48.9458 72.5287 48.9458Z" fill="white"/>
<path d="M52.1768 15.5093H17.4988V13.0712C17.4988 8.31115 13.7468 4.47988 9.08513 4.47988H8.51664C3.85501 4.59598 0.102966 8.42725 0.102966 13.1873V25.3777C0.102966 30.1378 3.85501 33.969 8.51664 33.969H9.08513C13.7468 33.969 17.4988 30.1378 17.4988 25.3777V22.9396H35.9179V30.8344C35.9179 31.4149 36.4864 31.9954 37.0549 31.9954H41.4891C42.1713 31.9954 42.6261 31.4149 42.6261 30.8344V26.887H44.559V30.8344C44.559 31.4149 45.1275 31.9954 45.696 31.9954H50.1302C50.8124 31.9954 51.2672 31.4149 51.2672 30.8344V22.9396H52.1768C54.1097 22.9396 55.7014 21.3142 55.7014 19.3406V19.1084C55.7014 17.1347 54.1097 15.5093 52.1768 15.5093ZM12.8372 25.0294C12.8372 27.2353 11.018 29.0929 8.85773 29.0929C6.69747 29.0929 4.87829 27.2353 4.87829 25.0294V13.4195C4.87829 11.2136 6.58377 9.35604 8.85773 9.35604C11.1317 9.35604 12.8372 11.2136 12.8372 13.4195V25.0294Z" fill="white"/>
</svg>
