<svg width="134" height="134" viewBox="0 0 134 134" fill="none" xmlns="http://www.w3.org/2000/svg">
<path d="M90.2972 58.6003H75.3994V50.2574C75.4404 48.7236 75.5654 44.0563 71.6878 41.8201C69.2065 40.3898 65.7962 40.0843 63.8031 42.1328C62.8782 43.0823 62.3861 44.3363 62.421 45.663L62.4886 47.8561C62.5584 49.9263 62.6301 52.0671 62.585 54.1506C62.5276 56.7364 60.4442 58.8228 57.846 58.8987C56.6839 58.9287 55.4098 58.8625 54.401 58.7867V58.6003C54.401 57.4407 53.4618 56.5006 52.3011 56.5006H39.702C38.5415 56.5006 37.6023 57.4407 37.6023 58.6003V92.1978C37.6023 93.3574 38.5415 94.2977 39.702 94.2977H52.3011C53.4618 94.2977 54.401 93.3574 54.401 92.1978V90.7979L57.6328 91.7405C58.9452 92.1538 60.2699 92.203 61.4777 92.203C61.6725 92.203 61.8632 92.2019 62.0498 92.1999L84.2539 92.1978H86.2595C86.4706 92.2214 86.6799 92.2337 86.8869 92.2337C88.1685 92.2337 89.3784 91.7856 90.3566 90.9367C91.5624 89.8877 92.2554 88.3426 92.2554 86.698C92.2554 85.6029 91.9325 84.5889 91.4025 83.7143C92.6641 82.6498 93.4837 81.0776 93.4837 79.3015C93.4837 78.2065 93.1611 77.1929 92.6315 76.3183C93.8927 75.2538 94.7122 73.6816 94.7122 71.9059C94.7122 70.8465 94.4056 69.8658 93.9075 69.0103C95.2298 67.9467 96.0943 66.3355 96.0943 64.5103C96.0943 61.2519 93.4941 58.6003 90.2972 58.6003ZM50.2013 90.0979H41.8019V60.7002H50.2013V90.0979ZM90.2972 66.1087H88.915H74.7944C73.6337 66.1087 72.6946 67.049 72.6946 68.2086C72.6946 69.3682 73.6337 70.3084 74.7944 70.3084H88.915C89.7968 70.3084 90.5124 71.0252 90.5124 71.9059C90.5124 72.7877 89.7968 73.5043 88.915 73.5043H87.6867H74.7944C73.6337 73.5043 72.6946 74.4446 72.6946 75.6042C72.6946 76.7638 73.6337 77.704 74.7944 77.704H87.6867C88.5685 77.704 89.2841 78.4206 89.2841 79.3015C89.2841 80.1831 88.5685 80.8999 87.6867 80.8999H86.4563H74.7944C73.6337 80.8999 72.6946 81.8402 72.6946 82.9998C72.6946 84.1594 73.6337 85.0995 74.7944 85.0995H86.4563C87.3381 85.0995 88.0558 85.8162 88.0558 86.698C88.0558 87.1266 87.8896 87.5152 87.6005 87.7664C87.3504 87.9848 87.0448 88.0678 86.684 88.0186C86.5876 88.0053 86.4892 87.9982 86.3908 87.9982H84.2539H74.7287H62.6034L62.0211 88.0012C60.881 88.0073 59.79 88.0155 58.8509 87.7213L54.401 86.4232V62.9967C55.4679 63.07 56.7496 63.1277 57.9691 63.0963C62.8024 62.9548 66.6739 59.0669 66.7846 54.2427C66.8318 52.0425 66.7539 49.7438 66.6862 47.7157L66.6206 45.5553C66.6145 45.3174 66.7211 45.1565 66.8113 45.0632C66.8873 44.9842 67.0553 44.8519 67.3199 44.8519C68.1176 44.8519 68.9029 45.0612 69.5899 45.458C70.3241 45.8814 71.2899 46.8278 71.1996 50.2009V60.7002C71.1996 61.8598 72.1388 62.8001 73.2995 62.8001H90.2972C91.1482 62.8001 91.8946 63.5988 91.8946 64.5103C91.8946 65.3921 91.1788 66.1087 90.2972 66.1087Z" fill="white"/>
<path d="M113.853 54.4438L112.596 41.6756C112.536 41.0727 112.22 40.5251 111.728 40.1725L101.291 32.7102L93.8283 22.2735C93.4756 21.7803 92.9281 21.4646 92.3252 21.405L79.5539 20.1481L67.8653 14.8585C67.3158 14.6103 66.6841 14.6103 66.1347 14.8585L54.4461 20.1481L41.6768 21.405C41.0739 21.4646 40.5264 21.7803 40.1737 22.2735L32.7115 32.7091L22.2737 40.1714C21.7816 40.5231 21.4658 41.0716 21.4064 41.6735L20.1473 54.4438L14.8588 66.1343C14.6106 66.6839 14.6106 67.3156 14.8588 67.865L20.1473 79.5557L21.4043 92.3239C21.4638 92.9268 21.7796 93.4744 22.2717 93.827L32.7094 101.289L40.1716 111.726C40.5244 112.219 41.0718 112.535 41.6747 112.594L54.444 113.851L66.1347 119.141C66.4093 119.265 66.7047 119.328 67 119.328C67.2952 119.328 67.5906 119.265 67.8653 119.141L79.5539 113.851L92.3232 112.594C92.9261 112.535 93.4735 112.219 93.8263 111.726L101.288 101.29L111.726 93.8281C112.218 93.4764 112.534 92.9277 112.594 92.3259L113.853 79.5557L119.141 67.865C119.389 67.3156 119.389 66.6839 119.141 66.1343L113.853 54.4438ZM109.883 78.1397C109.788 78.3478 109.729 78.5714 109.706 78.799L108.507 90.9654L98.5611 98.0769C98.3745 98.2112 98.2105 98.3753 98.0751 98.564L90.9636 108.508L78.7993 109.706C78.5696 109.729 78.3481 109.788 78.139 109.882L67 114.923L55.8589 109.882C55.6498 109.788 55.4283 109.729 55.1986 109.706L43.0343 108.508L35.9228 98.5629C35.7874 98.3753 35.6233 98.2102 35.4368 98.076L25.4912 90.9654L24.2936 78.8C24.2711 78.5714 24.2117 78.3478 24.1173 78.1397L19.0768 66.9997L24.1173 55.8596C24.2117 55.6515 24.2711 55.4281 24.2936 55.2004L25.4933 43.0341L35.4389 35.9225C35.6255 35.7881 35.7895 35.6241 35.9248 35.4355L43.0363 25.491L55.2007 24.2934C55.4304 24.2709 55.6519 24.2114 55.861 24.1171L67 19.0766L78.139 24.1171C78.3481 24.2114 78.5696 24.2709 78.7993 24.2934L90.9656 25.491L98.0772 35.4364C98.2125 35.6241 98.3766 35.7892 98.5631 35.9235L108.509 43.0341L109.706 55.1993C109.729 55.4281 109.788 55.6515 109.883 55.8596L114.923 66.9997L109.883 78.1397Z" fill="white"/>
</svg>
