<svg width="104" height="104" viewBox="0 0 104 104" fill="none" xmlns="http://www.w3.org/2000/svg">
<g clip-path="url(#clip0_54_16248)">
<path d="M66.9094 2.31567V4.9563C67.0312 4.9563 67.1531 5.01724 67.2141 5.13911L74.425 17.4079C75.2375 18.7891 76.5781 19.7438 78.1422 20.0688L92.1984 22.9735C92.3812 23.0141 92.5031 23.1969 92.4828 23.3797L90.8984 37.0297C90.7156 38.5938 91.2031 40.1782 92.2391 41.3766L101.237 51.7766C101.359 51.9188 101.359 52.1219 101.237 52.2438L92.2391 62.7657C91.2234 63.9641 90.7359 65.5282 90.9188 67.0922L92.5031 80.7626C92.5234 80.9454 92.4016 81.1282 92.2188 81.1688L78.1625 84.0735C76.5984 84.3985 75.2578 85.3532 74.4453 86.7141L67.2344 98.861C67.1734 98.9626 67.0516 99.0438 66.9297 99.0438C66.8688 99.0438 66.8281 99.0235 66.7672 99.0032L54.3563 93.2751C52.8531 92.5844 51.1266 92.5844 49.6234 93.2751L37.2328 99.0032C37.1922 99.0235 37.1313 99.0438 37.0906 99.0438C36.9688 99.0438 36.8469 98.9829 36.7656 98.861L29.6766 86.7344C28.8641 85.3532 27.5031 84.3782 25.9391 84.0532L11.7812 81.1485C11.5984 81.1079 11.4766 80.9454 11.4969 80.7422L13.0813 67.0922C13.2641 65.5282 12.7766 63.9641 11.7609 62.7657L2.74219 52.2438C2.62031 52.1016 2.62031 51.8985 2.74219 51.7766L11.7406 41.3766C12.7766 40.1782 13.2641 38.6141 13.0813 37.0297L11.4969 23.3797C11.4766 23.1969 11.5984 23.0141 11.7812 22.9735L25.9391 20.0688C27.5234 19.7438 28.8844 18.7688 29.6766 17.3672L36.7859 5.13911C36.8875 4.97661 37.0906 4.91567 37.2531 4.99692L49.6437 10.725C51.1469 11.4157 52.8734 11.4157 54.3766 10.725L66.7672 4.99692C66.8078 4.97661 66.8688 4.9563 66.9297 4.9563L66.9094 2.31567ZM66.9094 2.31567C66.4828 2.31567 66.0359 2.41724 65.65 2.60005L53.2594 8.32817C52.4672 8.6938 51.5328 8.6938 50.7406 8.32817L38.35 2.60005C36.9484 1.95005 35.2625 2.47817 34.4906 3.8188L27.3813 16.0469C26.9547 16.7782 26.2234 17.3063 25.3906 17.4891L11.2531 20.3938C9.72969 20.6985 8.69375 22.1407 8.87656 23.6844L10.4609 37.3344C10.5625 38.1672 10.2984 39 9.75 39.6501L0.73125 50.05C-0.24375 51.1672 -0.24375 52.8532 0.73125 53.9704L9.75 64.4922C10.2984 65.1219 10.5422 65.9547 10.4609 66.7875L8.87656 80.4376C8.69375 81.9813 9.72969 83.4032 11.2531 83.7282L25.4312 86.6329C26.2641 86.7954 26.9953 87.3235 27.4219 88.0547L34.5109 100.181C35.2828 101.522 36.9688 102.05 38.3703 101.4L50.7609 95.6719C51.5531 95.3063 52.4875 95.3063 53.2797 95.6719L65.6906 101.4C67.0922 102.03 68.7375 101.522 69.5094 100.202L76.7203 88.0344C77.1469 87.3032 77.8578 86.7954 78.6906 86.6125L92.7469 83.7079C94.2703 83.4032 95.3062 81.961 95.1234 80.4172L93.5391 66.7672C93.4375 65.9344 93.7016 65.1016 94.25 64.4719L103.269 53.9501C104.244 52.8329 104.244 51.1469 103.269 50.0297L94.2703 39.6297C93.7219 39 93.4578 38.1469 93.5594 37.3141L95.1437 23.6641C95.3266 22.1204 94.2906 20.6985 92.7672 20.3735L78.7109 17.4688C77.8781 17.286 77.1672 16.7782 76.7203 16.0469L69.5094 3.77817C68.9609 2.88442 67.9859 2.31567 66.9094 2.31567Z" fill="#7E68FF"/>
<path d="M67.1125 34.3485V36.9891C67.3156 36.9891 67.4984 37.0703 67.6406 37.2125L70.7687 40.3406C71.0734 40.6453 71.0734 41.1125 70.7687 41.4172L45.3375 66.8078C45.0328 67.1125 44.5656 67.1125 44.2609 66.8078L33.2313 55.7781C32.9469 55.4735 32.9469 55.0063 33.2313 54.7016L36.3594 51.5938C36.6438 51.2891 37.1312 51.2891 37.4156 51.5938L42.9406 57.1188L44.8094 58.9875L46.6781 57.1188L66.5844 37.2328C66.7266 37.0906 66.9094 37.0094 67.1125 37.0094V34.3485ZM67.1125 34.3485C66.2188 34.3485 65.3453 34.7141 64.7156 35.3438L44.8297 55.2297L39.3047 49.7047C37.9844 48.3844 35.8313 48.3844 34.4906 49.7047L31.3828 52.8125C30.0625 54.1328 30.0625 56.286 31.3828 57.6063L42.4125 68.636C43.7328 69.9563 45.8859 69.9563 47.2062 68.636L72.6375 43.2656C73.9578 41.9453 73.9578 39.7922 72.6375 38.4516L69.5094 35.3438C68.8797 34.6938 68.0062 34.3281 67.1125 34.3485Z" fill="#7E68FF"/>
</g>
<defs>
<clipPath id="clip0_54_16248">
<rect width="104" height="104" fill="white"/>
</clipPath>
</defs>
</svg>
