<svg width="65" height="65" viewBox="0 0 65 65" fill="none" xmlns="http://www.w3.org/2000/svg">
<path d="M32.5 36.901C33.3078 36.9 34.0822 36.5787 34.6534 36.0075C35.2245 35.4363 35.5459 34.6619 35.5469 33.8541V25.7291C35.5469 24.921 35.2259 24.1461 34.6545 23.5747C34.0831 23.0033 33.3081 22.6823 32.5 22.6823C31.6919 22.6823 30.9169 23.0033 30.3455 23.5747C29.7741 24.1461 29.4531 24.921 29.4531 25.7291V33.8541C29.4541 34.6619 29.7755 35.4363 30.3466 36.0075C30.9178 36.5787 31.6922 36.9 32.5 36.901Z" fill="#7E68FF"/>
<path d="M32.5 12.526C28.5495 12.526 24.6877 13.6975 21.403 15.8922C18.1183 18.087 15.5582 21.2065 14.0464 24.8563C12.5347 28.506 12.1391 32.5221 12.9098 36.3967C13.6805 40.2713 15.5828 43.8303 18.3762 46.6237C21.1697 49.4171 24.7287 51.3194 28.6032 52.0901C32.4778 52.8608 36.4939 52.4653 40.1437 50.9535C43.7934 49.4417 46.9129 46.8816 49.1077 43.5969C51.3025 40.3122 52.4739 36.4504 52.4739 32.5C52.4679 27.2044 50.3615 22.1275 46.617 18.3829C42.8725 14.6384 37.7955 12.5321 32.5 12.526ZM27.4218 25.7291C27.4218 24.3823 27.9569 23.0907 28.9092 22.1384C29.8615 21.186 31.1532 20.651 32.5 20.651C33.8468 20.651 35.1384 21.186 36.0907 22.1384C37.0431 23.0907 37.5781 24.3823 37.5781 25.7291V33.8541C37.5781 35.2009 37.0431 36.4926 36.0907 37.4449C35.1384 38.3972 33.8468 38.9323 32.5 38.9323C31.1532 38.9323 29.8615 38.3972 28.9092 37.4449C27.9569 36.4926 27.4218 35.2009 27.4218 33.8541V25.7291ZM32.5 44.3489C29.7175 44.3458 27.05 43.2391 25.0825 41.2716C23.115 39.3041 22.0083 36.6366 22.0052 33.8541H24.0364C24.0364 36.0988 24.9281 38.2515 26.5153 39.8388C28.1026 41.426 30.2553 42.3177 32.5 42.3177C34.7446 42.3177 36.8974 41.426 38.4846 39.8388C40.0718 38.2515 40.9635 36.0988 40.9635 33.8541H42.9948C42.9916 36.6366 41.8849 39.3041 39.9175 41.2716C37.95 43.2391 35.2824 44.3458 32.5 44.3489Z" fill="#7E68FF"/>
</svg>
