<svg width="41" height="41" viewBox="0 0 41 41" fill="none" xmlns="http://www.w3.org/2000/svg">
<path d="M20.5 0.526001C16.5495 0.526001 12.6877 1.69745 9.40303 3.89222C6.11833 6.08699 3.55822 9.20649 2.04644 12.8563C0.534656 16.506 0.139104 20.5221 0.909804 24.3967C1.6805 28.2713 3.58284 31.8303 6.37625 34.6237C9.16966 37.4171 12.7287 39.3194 16.6032 40.0901C20.4778 40.8608 24.4939 40.4653 28.1437 38.9535C31.7934 37.4417 34.9129 34.8816 37.1077 31.5969C39.3025 28.3122 40.4739 24.4504 40.4739 20.5C40.4679 15.2044 38.3615 10.1275 34.617 6.38293C30.8725 2.6384 25.7955 0.532058 20.5 0.526001ZM15.4218 13.7291C15.4218 12.3823 15.9569 11.0907 16.9092 10.1384C17.8615 9.18602 19.1532 8.651 20.5 8.651C21.8468 8.651 23.1384 9.18602 24.0907 10.1384C25.0431 11.0907 25.5781 12.3823 25.5781 13.7291V21.8541C25.5781 23.2009 25.0431 24.4926 24.0907 25.4449C23.1384 26.3972 21.8468 26.9323 20.5 26.9323C19.1532 26.9323 17.8615 26.3972 16.9092 25.4449C15.9569 24.4926 15.4218 23.2009 15.4218 21.8541V13.7291ZM20.5 32.3489C17.7175 32.3458 15.05 31.2391 13.0825 29.2716C11.115 27.3041 10.0083 24.6366 10.0052 21.8541H12.0364C12.0364 24.0988 12.9281 26.2515 14.5153 27.8388C16.1026 29.426 18.2553 30.3177 20.5 30.3177C22.7446 30.3177 24.8974 29.426 26.4846 27.8388C28.0718 26.2515 28.9635 24.0988 28.9635 21.8541H30.9948C30.9916 24.6366 29.8849 27.3041 27.9175 29.2716C25.95 31.2391 23.2824 32.3458 20.5 32.3489Z" fill="#7E68FF"/>
</svg>
