<svg width="65" height="65" viewBox="0 0 65 65" fill="none" xmlns="http://www.w3.org/2000/svg">
<g clip-path="url(#clip0_54_22836)">
<path d="M40.4615 52.0014H24.2134C23.2385 52.0014 22.5886 52.6513 22.5886 53.6262V60.1255C22.5886 61.1004 23.2385 61.7503 24.2134 61.7503H25.5132L28.7629 64.9999H35.5871L38.8367 61.7503H40.4615C41.4364 61.7503 42.0864 61.1004 42.0864 60.1255V53.6262C42.0864 52.6513 41.4364 52.0014 40.4615 52.0014Z" fill="white"/>
<path d="M40.4615 52.0014H24.2134C23.2385 52.0014 22.5886 52.6513 22.5886 53.6262V60.1255C22.5886 61.1004 23.2385 61.7503 24.2134 61.7503H25.5132L28.7629 64.9999H35.5871L38.8367 61.7503H40.4615C41.4364 61.7503 42.0864 61.1004 42.0864 60.1255V53.6262C42.0864 52.6513 41.4364 52.0014 40.4615 52.0014Z" fill="white"/>
<path d="M32.9874 0.00730646C19.9889 -0.317657 9.59009 10.0812 9.59009 22.7547C9.59009 30.2289 13.1647 37.0531 19.014 40.9527C20.3139 42.2525 21.2888 43.8773 21.9387 45.5022H42.7363C43.3863 43.8773 44.3612 42.2525 45.986 40.9527C51.8353 36.7282 55.4099 29.9039 55.4099 21.7798C54.76 10.0812 44.6861 0.33227 32.9874 0.00730646ZM41.1115 26.9792C42.4114 28.2791 42.4114 30.2289 41.1115 31.5287C40.4616 32.1787 39.8117 32.5036 38.8368 32.5036C37.8619 32.5036 37.212 32.1787 36.562 31.5287L32.3375 27.3042L28.113 31.5287C27.4631 32.1787 26.8131 32.5036 25.8382 32.5036C24.8634 32.5036 24.2134 32.1787 23.5635 31.5287C22.2637 30.2289 22.2637 28.2791 23.5635 26.9792L27.788 22.7547L23.5635 18.5302C22.2637 17.2304 22.2637 15.2806 23.5635 13.9807C24.8634 12.6809 26.8131 12.6809 28.113 13.9807L32.3375 18.2052L36.562 13.9807C37.8619 12.6809 39.8117 12.6809 41.1115 13.9807C42.4114 15.2806 42.4114 17.2304 41.1115 18.5302L36.887 22.7547L41.1115 26.9792Z" fill="white"/>
<path d="M32.9874 0.00730646C19.9889 -0.317657 9.59009 10.0812 9.59009 22.7547C9.59009 30.2289 13.1647 37.0531 19.014 40.9527C20.3139 42.2525 21.2888 43.8773 21.9387 45.5022H42.7363C43.3863 43.8773 44.3612 42.2525 45.986 40.9527C51.8353 36.7282 55.4099 29.9039 55.4099 21.7798C54.76 10.0812 44.6861 0.33227 32.9874 0.00730646ZM41.1115 26.9792C42.4114 28.2791 42.4114 30.2289 41.1115 31.5287C40.4616 32.1787 39.8117 32.5036 38.8368 32.5036C37.8619 32.5036 37.212 32.1787 36.562 31.5287L32.3375 27.3042L28.113 31.5287C27.4631 32.1787 26.8131 32.5036 25.8382 32.5036C24.8634 32.5036 24.2134 32.1787 23.5635 31.5287C22.2637 30.2289 22.2637 28.2791 23.5635 26.9792L27.788 22.7547L23.5635 18.5302C22.2637 17.2304 22.2637 15.2806 23.5635 13.9807C24.8634 12.6809 26.8131 12.6809 28.113 13.9807L32.3375 18.2052L36.562 13.9807C37.8619 12.6809 39.8117 12.6809 41.1115 13.9807C42.4114 15.2806 42.4114 17.2304 41.1115 18.5302L36.887 22.7547L41.1115 26.9792Z" fill="white"/>
</g>
<defs>
<clipPath id="clip0_54_22836">
<rect width="65" height="65" fill="white"/>
</clipPath>
</defs>
</svg>
