<svg width="67" height="67" viewBox="0 0 67 67" fill="none" xmlns="http://www.w3.org/2000/svg">
<g clip-path="url(#clip0_54_16263)">
<path d="M4.54248 49.8804V60.7409C4.54248 61.4017 5.07932 61.9523 5.7538 61.9523H14.1504C14.8112 61.9523 15.3618 61.4154 15.3618 60.7409V41.6351L9.26387 47.733C7.96996 49.0132 6.31816 49.7565 4.54248 49.8804Z" fill="#7E68FF"/>
<path d="M4.54248 49.8804V60.7409C4.54248 61.4017 5.07932 61.9523 5.7538 61.9523H14.1504C14.8112 61.9523 15.3618 61.4154 15.3618 60.7409V41.6351L9.26387 47.733C7.96996 49.0132 6.31816 49.7565 4.54248 49.8804Z" fill="white"/>
<path d="M19.5463 41.4975V60.741C19.5463 61.4017 20.0831 61.9523 20.7576 61.9523H29.1542C29.8149 61.9523 30.3655 61.4154 30.3655 60.741V49.4124C28.4522 49.3711 26.6628 48.614 25.3138 47.265L19.5463 41.4975Z" fill="#7E68FF"/>
<path d="M19.5463 41.4975V60.741C19.5463 61.4017 20.0831 61.9523 20.7576 61.9523H29.1542C29.8149 61.9523 30.3655 61.4154 30.3655 60.741V49.4124C28.4522 49.3711 26.6628 48.614 25.3138 47.265L19.5463 41.4975Z" fill="white"/>
<path d="M34.5502 48.2148V60.7409C34.5502 61.4017 35.087 61.9523 35.7615 61.9523H44.1581C44.8189 61.9523 45.3695 61.4154 45.3695 60.7409V37.6295L35.7477 47.2512C35.3761 47.6229 34.9769 47.9395 34.5502 48.2148Z" fill="#7E68FF"/>
<path d="M34.5502 48.2148V60.7409C34.5502 61.4017 35.087 61.9523 35.7615 61.9523H44.1581C44.8189 61.9523 45.3695 61.4154 45.3695 60.7409V37.6295L35.7477 47.2512C35.3761 47.6229 34.9769 47.9395 34.5502 48.2148Z" fill="white"/>
<path d="M59.5611 23.4241L49.554 33.4312V60.741C49.554 61.4017 50.0908 61.9523 50.7653 61.9523H59.1619C59.8226 61.9523 60.3732 61.4154 60.3732 60.741V24.1811C60.0979 23.9471 59.8915 23.7407 59.74 23.603L59.5611 23.4241Z" fill="#7E68FF"/>
<path d="M59.5611 23.4241L49.554 33.4312V60.741C49.554 61.4017 50.0908 61.9523 50.7653 61.9523H59.1619C59.8226 61.9523 60.3732 61.4154 60.3732 60.741V24.1811C60.0979 23.9471 59.8915 23.7407 59.74 23.603L59.5611 23.4241Z" fill="white"/>
<path d="M66.4299 5.69474C66.0307 5.26803 65.425 5.04779 64.6542 5.04779C64.5854 5.04779 64.5028 5.04779 64.4339 5.04779C60.5247 5.22674 56.6292 5.41945 52.7199 5.59839C52.1969 5.62592 51.4811 5.65345 50.9167 6.21781C50.7378 6.39676 50.6001 6.60323 50.49 6.851C49.9119 8.10362 50.724 8.91575 51.1094 9.30117L52.0867 10.2923C52.7612 10.9805 53.4495 11.6688 54.1377 12.3432L30.517 35.9777L19.9042 25.3649C19.271 24.7317 18.4176 24.3738 17.5091 24.3738C16.6006 24.3738 15.7609 24.7317 15.1277 25.3649L0.99108 39.4878C-0.33036 40.8092 -0.33036 42.9428 0.99108 44.2643L1.62427 44.8974C2.25746 45.5306 3.11089 45.8885 4.01938 45.8885C4.92787 45.8885 5.76753 45.5306 6.40072 44.8974L17.5091 33.7891L28.1219 44.4019C28.7551 45.0351 29.6085 45.393 30.517 45.393C31.4255 45.393 32.2651 45.0351 32.9121 44.4019L59.5611 17.7529L62.5757 20.7536C62.9336 21.1115 63.4291 21.6071 64.1862 21.6071C64.5028 21.6071 64.8194 21.5245 65.1497 21.3455C65.37 21.2217 65.5627 21.084 65.7278 20.9188C66.3197 20.3269 66.4299 19.5699 66.4574 18.978C66.5675 16.4452 66.6914 13.9124 66.8153 11.3659L66.9942 7.55302C67.0355 6.75465 66.8566 6.13522 66.4299 5.69474Z" fill="#7E68FF"/>
<path d="M66.4299 5.69474C66.0307 5.26803 65.425 5.04779 64.6542 5.04779C64.5854 5.04779 64.5028 5.04779 64.4339 5.04779C60.5247 5.22674 56.6292 5.41945 52.7199 5.59839C52.1969 5.62592 51.4811 5.65345 50.9167 6.21781C50.7378 6.39676 50.6001 6.60323 50.49 6.851C49.9119 8.10362 50.724 8.91575 51.1094 9.30117L52.0867 10.2923C52.7612 10.9805 53.4495 11.6688 54.1377 12.3432L30.517 35.9777L19.9042 25.3649C19.271 24.7317 18.4176 24.3738 17.5091 24.3738C16.6006 24.3738 15.7609 24.7317 15.1277 25.3649L0.99108 39.4878C-0.33036 40.8092 -0.33036 42.9428 0.99108 44.2643L1.62427 44.8974C2.25746 45.5306 3.11089 45.8885 4.01938 45.8885C4.92787 45.8885 5.76753 45.5306 6.40072 44.8974L17.5091 33.7891L28.1219 44.4019C28.7551 45.0351 29.6085 45.393 30.517 45.393C31.4255 45.393 32.2651 45.0351 32.9121 44.4019L59.5611 17.7529L62.5757 20.7536C62.9336 21.1115 63.4291 21.6071 64.1862 21.6071C64.5028 21.6071 64.8194 21.5245 65.1497 21.3455C65.37 21.2217 65.5627 21.084 65.7278 20.9188C66.3197 20.3269 66.4299 19.5699 66.4574 18.978C66.5675 16.4452 66.6914 13.9124 66.8153 11.3659L66.9942 7.55302C67.0355 6.75465 66.8566 6.13522 66.4299 5.69474Z" fill="white"/>
</g>
<defs>
<clipPath id="clip0_54_16263">
<rect width="67" height="67" fill="white"/>
</clipPath>
</defs>
</svg>
