<svg width="65" height="65" viewBox="0 0 65 65" fill="none" xmlns="http://www.w3.org/2000/svg">
<g clip-path="url(#clip0_54_22819)">
<path d="M35.8854 0H7.44792C3.33125 0 0 3.33125 0 7.44792V49.4271C0 53.5437 3.33125 56.875 7.44792 56.875H27.9229C26.5146 54.0042 25.7292 50.7812 25.7292 47.3958C25.7292 45.0396 26.1083 42.7375 26.8396 40.625C27.3 39.1896 27.8958 37.8354 28.6542 36.5625C30.2792 33.7458 32.5271 31.3354 35.2083 29.5208C37.6188 27.8687 40.3542 26.6771 43.3333 26.1083V7.44792C43.3333 3.33125 40.0021 0 35.8854 0ZM32.5 27.7604C32.5 28.581 32.0044 29.3231 31.246 29.6373C30.9942 29.7402 30.7315 29.7917 30.4688 29.7917C29.9406 29.7917 29.4206 29.5858 29.0333 29.1958L26.8938 27.0562L23.0452 30.6069C22.3952 31.2081 21.431 31.3192 20.6592 30.8777L17.2683 28.9385L11.5917 34.6125C11.1963 35.0106 10.6763 35.2083 10.1563 35.2083C9.63625 35.2083 9.11625 35.0106 8.72083 34.6125C7.92729 33.819 7.92729 32.5325 8.72083 31.739L15.4917 24.9681C16.139 24.3181 17.1383 24.1827 17.9346 24.6404L21.3823 26.6121L24.0175 24.18L22.2625 22.425C21.6802 21.8454 21.5069 20.9706 21.821 20.2123C22.1352 19.454 22.8773 18.9583 23.6979 18.9583H30.4688C31.59 18.9583 32.5 19.8683 32.5 20.9896V27.7604Z" fill="#7E68FF"/>
<path d="M35.8854 0H7.44792C3.33125 0 0 3.33125 0 7.44792V49.4271C0 53.5437 3.33125 56.875 7.44792 56.875H27.9229C26.5146 54.0042 25.7292 50.7812 25.7292 47.3958C25.7292 45.0396 26.1083 42.7375 26.8396 40.625C27.3 39.1896 27.8958 37.8354 28.6542 36.5625C30.2792 33.7458 32.5271 31.3354 35.2083 29.5208C37.6188 27.8687 40.3542 26.6771 43.3333 26.1083V7.44792C43.3333 3.33125 40.0021 0 35.8854 0ZM32.5 27.7604C32.5 28.581 32.0044 29.3231 31.246 29.6373C30.9942 29.7402 30.7315 29.7917 30.4688 29.7917C29.9406 29.7917 29.4206 29.5858 29.0333 29.1958L26.8938 27.0562L23.0452 30.6069C22.3952 31.2081 21.431 31.3192 20.6592 30.8777L17.2683 28.9385L11.5917 34.6125C11.1963 35.0106 10.6763 35.2083 10.1563 35.2083C9.63625 35.2083 9.11625 35.0106 8.72083 34.6125C7.92729 33.819 7.92729 32.5325 8.72083 31.739L15.4917 24.9681C16.139 24.3181 17.1383 24.1827 17.9346 24.6404L21.3823 26.6121L24.0175 24.18L22.2625 22.425C21.6802 21.8454 21.5069 20.9706 21.821 20.2123C22.1352 19.454 22.8773 18.9583 23.6979 18.9583H30.4688C31.59 18.9583 32.5 19.8683 32.5 20.9896V27.7604Z" fill="white"/>
<path d="M47.3958 29.7917C37.6891 29.7917 29.7916 37.6892 29.7916 47.3958C29.7916 57.1025 37.6891 65 47.3958 65C57.1025 65 65 57.1025 65 47.3958C65 37.6892 57.1025 29.7917 47.3958 29.7917ZM54.4158 54.7354C54.0177 55.25 53.4164 55.5208 52.8125 55.5208C52.3764 55.5208 51.9377 55.38 51.5666 55.0929L45.4729 50.3533C44.9773 49.9688 44.6875 49.3756 44.6875 48.75V39.9479C44.6875 38.8267 45.5975 37.9167 46.7187 37.9167C47.84 37.9167 48.75 38.8267 48.75 39.9479V47.7561L54.0583 51.8863C54.9466 52.5742 55.1037 53.8498 54.4158 54.7354Z" fill="#7E68FF"/>
<path d="M47.3958 29.7917C37.6891 29.7917 29.7916 37.6892 29.7916 47.3958C29.7916 57.1025 37.6891 65 47.3958 65C57.1025 65 65 57.1025 65 47.3958C65 37.6892 57.1025 29.7917 47.3958 29.7917ZM54.4158 54.7354C54.0177 55.25 53.4164 55.5208 52.8125 55.5208C52.3764 55.5208 51.9377 55.38 51.5666 55.0929L45.4729 50.3533C44.9773 49.9688 44.6875 49.3756 44.6875 48.75V39.9479C44.6875 38.8267 45.5975 37.9167 46.7187 37.9167C47.84 37.9167 48.75 38.8267 48.75 39.9479V47.7561L54.0583 51.8863C54.9466 52.5742 55.1037 53.8498 54.4158 54.7354Z" fill="white"/>
</g>
<defs>
<clipPath id="clip0_54_22819">
<rect width="65" height="65" fill="white"/>
</clipPath>
</defs>
</svg>
