<svg width="22" height="22" viewBox="0 0 22 22" fill="none" xmlns="http://www.w3.org/2000/svg">
<g clip-path="url(#clip0_54_16044)">
<path d="M20.6395 6.02845C20.4046 5.15491 19.7158 4.4663 18.8424 4.23108C17.2468 3.79449 10.8641 3.79449 10.8641 3.79449C10.8641 3.79449 4.48173 3.79449 2.8861 4.21453C2.02948 4.4495 1.32395 5.15503 1.08898 6.02845C0.669067 7.62396 0.669067 10.9328 0.669067 10.9328C0.669067 10.9328 0.669067 14.2584 1.08898 15.8372C1.3242 16.7106 2.01268 17.3992 2.88622 17.6345C4.49853 18.0712 10.8644 18.0712 10.8644 18.0712C10.8644 18.0712 17.2468 18.0712 18.8424 17.6511C19.716 17.416 20.4046 16.7274 20.6398 15.854C21.0596 14.2584 21.0596 10.9496 21.0596 10.9496C21.0596 10.9496 21.0764 7.62396 20.6395 6.02845ZM8.83204 13.9897V7.87598L14.1395 10.9328L8.83204 13.9897Z" fill="#7E68FF"/>
</g>
<defs>
<clipPath id="clip0_54_16044">
<rect width="21.75" height="21.75" fill="white" transform="translate(0 0.25)"/>
</clipPath>
</defs>
</svg>
