<svg width="22" height="22" viewBox="0 0 22 22" fill="none" xmlns="http://www.w3.org/2000/svg">
<g clip-path="url(#clip0_54_16239)">
<path d="M20.6395 5.77839C20.4046 4.90485 19.7158 4.21624 18.8424 3.98102C17.2468 3.54443 10.8641 3.54443 10.8641 3.54443C10.8641 3.54443 4.48173 3.54443 2.8861 3.96447C2.02948 4.19944 1.32395 4.90497 1.08898 5.77839C0.669067 7.3739 0.669067 10.6828 0.669067 10.6828C0.669067 10.6828 0.669067 14.0083 1.08898 15.5871C1.3242 16.4606 2.01268 17.1492 2.88622 17.3844C4.49853 17.8211 10.8644 17.8211 10.8644 17.8211C10.8644 17.8211 17.2468 17.8211 18.8424 17.4011C19.716 17.166 20.4046 16.4774 20.6398 15.604C21.0596 14.0083 21.0596 10.6996 21.0596 10.6996C21.0596 10.6996 21.0764 7.3739 20.6395 5.77839ZM8.83204 13.7396V7.62592L14.1395 10.6828L8.83204 13.7396Z" fill="white"/>
</g>
<defs>
<clipPath id="clip0_54_16239">
<rect width="21.75" height="21.75" fill="white"/>
</clipPath>
</defs>
</svg>
